<svg width="500" height="991" viewBox="0 0 56 111" fill="none" xmlns="http://www.w3.org/2000/svg">
<path fill-rule="evenodd" clip-rule="evenodd" d="M5.79606 75C2.59498 75 0 77.595 0 80.7961V105.034C0 108.235 2.59499 110.83 5.79606 110.83H50.0569C53.258 110.83 55.8529 108.235 55.8529 105.034V80.7961C55.8529 77.595 53.2579 75 50.0569 75H5.79606ZM6.33794 91.5156V87.2341H13.529V84.6343H6.33794H5.43076H3.019V100.742H6.33794V94.1043H12.7546V91.5156H6.33794ZM26.1046 100.742V98.1535H18.6148V93.7171H24.9872V91.1947H18.6148V87.2341H26.0935V84.6343H18.6148H17.5307H15.2959V100.742H17.5307H18.6148H26.1046ZM31.2015 91.5156V87.2341H38.3926V84.6343H31.2015H30.2943H27.8826V100.742H31.2015V94.1043H37.6181V91.5156H31.2015ZM52.3621 84.6343H49.0542V95.277C49.0542 95.9998 48.9399 96.5899 48.7113 97.0471C48.49 97.5044 48.1655 97.84 47.7377 98.0539C47.3173 98.2678 46.8047 98.3747 46.1999 98.3747C45.6099 98.3747 45.0973 98.2678 44.6622 98.0539C44.2344 97.84 43.9062 97.5044 43.6776 97.0471C43.4489 96.5899 43.3346 95.9998 43.3346 95.277V84.6343H40.0156V95.277C40.0156 96.5161 40.2775 97.5597 40.8011 98.4079C41.3322 99.2561 42.0623 99.8941 42.9916 100.322C43.9283 100.75 44.9978 100.963 46.1999 100.963C47.4021 100.963 48.4642 100.75 49.3861 100.322C50.3154 99.8941 51.0419 99.2561 51.5656 98.4079C52.0966 97.5597 52.3621 96.5161 52.3621 95.277V84.6343Z" fill="white"/>
<path d="M45.2501 62.9696C38.0974 58.4295 26.8518 54.3236 20.3349 48.0859C20.2554 48.0069 20.1362 47.8885 20.0568 47.8095C20.1362 47.7306 20.2157 47.6911 20.2952 47.6121C21.8847 46.3488 23.6728 45.1249 25.6597 43.8616C33.8058 50.0599 44.4951 54.7184 47.833 56.7714C51.3299 58.9427 54.2704 62.0221 55.2639 66.8781C56.1381 61.3905 56.3368 55.6659 54.8665 52.1128C53.0386 47.7701 50.257 45.3223 46.323 43.1905C43.3825 41.5718 39.8061 39.5978 36.1503 37.2685C38.0577 36.0052 39.9651 34.6629 41.7532 33.2022C43.2633 33.9918 44.6938 34.7419 46.1243 35.4525C51.2504 37.9792 54.0718 40.7822 55.3036 45.0065C56.9726 37.1896 55.3036 33.3601 53.8333 30.9913C52.3233 28.5831 50.2967 26.8855 48.747 25.78C50.3365 22.3848 48.5483 17.8447 45.0514 16.4234C45.727 18.3184 44.2169 20.174 42.0314 21.99C40.4419 21.1215 38.773 20.2529 37.104 19.3449C38.3756 18.279 39.6074 17.1735 40.6803 15.9497C43.5414 12.6729 41.793 8.68547 38.2961 7.58004C39.0511 9.86985 35.8721 11.8043 34.2429 12.8308C33.0111 13.5809 31.5805 14.331 30.0705 15.1206C28.9181 14.331 27.8452 13.5414 26.8916 12.7518C26.7723 12.6334 26.6134 12.515 26.4942 12.3965C26.5737 12.3571 26.6134 12.3176 26.6929 12.2781C29.991 10.62 33.0111 8.44859 34.8787 6.47462C37.1437 4.10586 35.3158 0.434273 33.17 0C33.4879 1.89501 31.4613 2.96096 30.0308 3.71106C27.885 4.77701 25.1829 6.04035 22.8781 7.77744C22.6794 7.93536 22.441 8.09328 22.2423 8.29067C21.0105 9.31714 20.0965 10.8568 19.7389 12.6334C19.421 14.331 19.6991 16.305 20.8515 18.0421C20.9707 18.2 21.1297 18.3974 21.2489 18.5553C21.5668 18.9501 21.8847 19.3054 22.2423 19.7002C21.0899 20.5293 20.017 21.3978 18.9441 22.4243C17.0765 24.2403 15.7652 26.8065 15.6857 29.1753C15.6459 30.9913 15.9241 32.6889 17.5931 35.492C17.9507 36.0842 18.3481 36.6764 18.7852 37.2685C17.0367 38.6503 15.487 40.0321 14.2154 41.4928C14.1757 41.5323 14.1757 41.5718 14.1359 41.6113C10.043 47.2174 10.2814 51.9549 12.9836 56.1002C17.5136 63.0486 28.8784 68.2599 38.0179 72.8C42.5082 75.0503 46.5614 77.4586 49.8199 81.2881C52.0054 83.8542 53.9525 86.9336 55.2639 91C56.2573 85.4729 56.2176 78.1692 54.8268 74.2607C53.5154 70.4707 50.8133 66.4833 45.2501 62.9696ZM24.2292 28.4646C23.9907 28.2672 23.7921 28.0698 23.5934 27.8724C23.7126 27.7935 23.8318 27.7145 23.951 27.6356C25.2623 26.8855 26.8518 26.0169 28.5208 25.0299C29.9513 26.0959 31.4216 27.1223 32.8919 28.0698C31.1832 29.0963 29.3553 30.1623 27.5671 31.3072C26.4147 30.3597 25.2623 29.4121 24.2292 28.4646Z" fill="white"/>
</svg>
